# xmcd
#
# Track frame offsets:
#	150
#	12132
#	24855
#	35900
#	53112
#	69557
#	83147
#	93790
#	102045
#	110672
#	121502
#	138135
#	147925
#	159650
#
# Disc length: 2251 seconds
#
# Revision: 0
# Processed by: cddbd v1.5.2PL0 Copyright (c) Steve Scherf et al.
# Submitted via: EasyCDDAExtractor 9.1.3.1
#
DISCID=a908c90e
DTITLE=Tibagi and Niltinho - BIS (Dois em um) - Vol. 02
DYEAR=2000
DGENRE=Country
TTITLE0=A dama de vermelho
TTITLE1=Foi um sonho
TTITLE2=Casinha pequenina
TTITLE3=Vestido molhado
TTITLE4=Meu martírio (Delante de mi detente)
TTITLE5=Caminho verde (Camiño verde)
TTITLE6=Não me escrevas
TTITLE7=Decisão cruel
TTITLE8=Desiludido
TTITLE9=Velho carreiro
TTITLE10=Dia mais triste da vida
TTITLE11=Onde estás?
TTITLE12=Gangorra
TTITLE13=Meu Rio Grande
EXTD=
EXTT0=
EXTT1=
EXTT2=
EXTT3=
EXTT4=
EXTT5=
EXTT6=
EXTT7=
EXTT8=
EXTT9=
EXTT10=
EXTT11=
EXTT12=
EXTT13=
PLAYORDER=
